<?xml version="1.0" encoding="UTF-8" standalone="no"?>
<svg
   height="48"
   viewBox="0 96 960 960"
   width="48"
   version="1.1"
   id="svg4"
   sodipodi:docname="cal2.svg"
   inkscape:version="1.1.1 (3bf5ae0d25, 2021-09-20)"
   xmlns:inkscape="http://www.inkscape.org/namespaces/inkscape"
   xmlns:sodipodi="http://sodipodi.sourceforge.net/DTD/sodipodi-0.dtd"
   xmlns="http://www.w3.org/2000/svg"
   xmlns:svg="http://www.w3.org/2000/svg">
  <defs
     id="defs8" />
  <sodipodi:namedview
     id="namedview6"
     pagecolor="#ffffff"
     bordercolor="#666666"
     borderopacity="1.0"
     inkscape:pageshadow="2"
     inkscape:pageopacity="0.0"
     inkscape:pagecheckerboard="0"
     showgrid="false"
     inkscape:zoom="17.541667"
     inkscape:cx="23.971496"
     inkscape:cy="24"
     inkscape:window-width="1920"
     inkscape:window-height="1046"
     inkscape:window-x="-11"
     inkscape:window-y="-11"
     inkscape:window-maximized="1"
     inkscape:current-layer="svg4" />
  <path
     d="M180 976q-24 0-42-18t-18-42V296q0-24 18-42t42-18h65v-60h65v60h340v-60h65v60h65q24 0 42 18t18 42v620q0 24-18 42t-42 18H180Zm0-60h600V486H180v430Zm0-490h600V296H180v130Zm0 0V296v130Zm300 230q-17 0-28.5-11.5T440 616q0-17 11.5-28.5T480 576q17 0 28.5 11.5T520 616q0 17-11.5 28.5T480 656Zm-160 0q-17 0-28.5-11.5T280 616q0-17 11.5-28.5T320 576q17 0 28.5 11.5T360 616q0 17-11.5 28.5T320 656Zm320 0q-17 0-28.5-11.5T600 616q0-17 11.5-28.5T640 576q17 0 28.5 11.5T680 616q0 17-11.5 28.5T640 656ZM480 816q-17 0-28.5-11.5T440 776q0-17 11.5-28.5T480 736q17 0 28.5 11.5T520 776q0 17-11.5 28.5T480 816Zm-160 0q-17 0-28.5-11.5T280 776q0-17 11.5-28.5T320 736q17 0 28.5 11.5T360 776q0 17-11.5 28.5T320 816Zm320 0q-17 0-28.5-11.5T600 776q0-17 11.5-28.5T640 736q17 0 28.5 11.5T680 776q0 17-11.5 28.5T640 816Z"
     id="path2"
     style="fill:#ffffff;fill-opacity:1" />
</svg>
