<svg id="Ebene_1" data-name="Ebene 1" xmlns="http://www.w3.org/2000/svg" viewBox="0 0 2016.36 2173.58"><defs><style>.cls-1,.cls-2,.cls-3{fill:#1d1d1d;}
  @media (prefers-color-scheme:dark) {
        .cls-1,.cls-2,.cls-3 {
          fill: white;
        }
      }
  .cls-2{font-size:166.84px;}.cls-2,.cls-3{font-family:ArialMT, Arial;}.cls-3{font-size:270.48px;}.cls-4{fill:#e42924;}.cls-5{fill:#e52f2c;}.cls-6{fill:#e63331;}.cls-7{fill:#e4221d;}.cls-8{fill:#da0d15;}.cls-9{fill:#e42822;}.cls-10{fill:#e5322f;}.cls-11{fill:#ed751c;}.cls-12{fill:#f08617;}.cls-13{fill:#e31b18;}.cls-14{fill:#d70f16;}.cls-15{fill:#ef7e19;}.cls-16{fill:#e9611c;}.cls-17{fill:#cc1417;}.cls-18{fill:#f2e500;}.cls-19{fill:#fabc01;}.cls-20{fill:#e3cb00;}.cls-21{fill:#fbc005;}.cls-22{fill:#e4ce00;}.cls-23{fill:#009142;}.cls-24{fill:#3a4a91;}.cls-25{fill:#007940;}.cls-26{fill:#124f9c;}.cls-27{fill:#7d3b8e;}.cls-28{fill:#803987;}.cls-29{fill:#3f519e;}.cls-30{fill:#029d42;}.cls-31{fill:#059739;}.cls-32{fill:#fcc800;}.cls-33{fill:#e74344;}.cls-34{fill:#ed7274;}.cls-35{fill:#e7491f;}.cls-36{fill:#e31916;}.cls-37{fill:#e63838;}.cls-38{fill:#e63432;}.cls-39{fill:#e95254;}</style></defs><path class="cls-1" d="M1901.26,747.42l-2.81-.59-16.9,11.31-61.93,57.94V747.71c8.28-1.26,14.07-5.78,14.33-11.18V687.78H1824v38.75c0,1,0,2.23,0,3.76,0,4.25-3.94,7.71-8.77,7.71s-8.76-3.46-8.76-7.71c0-.87,0-1.69,0-2.4,0-.54,0-1,0-1.33V687.78h-9.92v48.28a.45.45,0,0,0,0,.11c0,5.22,5.42,9.83,13.26,11.35v68.56l-66.93-62.63h0L1736,747l-.45-.31-.11-.12-20,21.29,7.21,6.82L1736,760.56l71.48,66.86-78.76,73.69,6.7,7.16,74.26-69.49V946h9.91V838.78l74.27,69.49,6.69-7.16-78.74-73.69,67-62.72Z" transform="translate(-31.87 105.85)"/><path class="cls-1" d="M118.11,784.89l-2,2.23c-.7.78-1.38,1.59-2.09,2.41l-1.42,1.67,4.51,4c.65.59,1.33,1.17,2,1.76,1.54,1.33,3.13,2.72,4.65,4.12.87.83,1.46,1.33,2.18,1.33s1.37-.58,2.11-1.32c2.62-2.64,5.37-5.45,8.65-8.87q3.18-3.3,6.35-6.62l4.83-5.05q1.6-1.68,3.23-3.34l1-1c5.18,4.53,49,46.32,53.36,50.9l-83.88,79.1.36.45c.28.33.53.65.78,1a21.67,21.67,0,0,0,1.58,1.91c2.11,2.16,4,4,5.81,5.75l.55.54a8,8,0,0,0,3.54,2.36l.36.1,80.26-82.15a.7.7,0,0,1,.16.14q1.86,1.89,3.7,3.79c2.42,2.48,4.85,5,7.31,7.43s5.2,5.18,7.81,7.76q2.61,2.56,5.22,5.16l4.47,4.46c2.14,2.16,4.28,4.31,6.45,6.44q5.73,5.65,11.52,11.26l4,3.89c.55.55,1.13,1.09,1.69,1.64.9.86,1.8,1.72,2.69,2.61q2.76,2.76,5.51,5.53c2.13,2.14,4.27,4.29,6.41,6.42q5.37,5.36,10.78,10.64c1.33,1.29,2.76,2.67,4.33,4a1.88,1.88,0,0,0,3.08-.15c2.55-2.44,5.06-4.82,7.54-7.29.78-.78,1.49-1.62,2.17-2.44l.46-.56a7.86,7.86,0,0,0,.6-.87,2.55,2.55,0,0,1,.24-.39l.28-.43-.85-.83c-.23-.23-.45-.45-.67-.65L289.35,884.9q-27.12-25-54.27-49.94c-1.41-1.29-2.87-2.56-4.31-3.78-.79-.69-1.6-1.37-2.39-2.07l-2.79-2.47-1-.85q8.38-8.65,16.68-17.34c10.4-10.82,21.14-22,31.9-32.89.31.25.58.48.85.72l2.4,2.11q4.38,3.86,8.73,7.74a26.57,26.57,0,0,0,5.73,4c1.35.68,2.68,1.36,4,2.1l5.07,3,4.85,2.85q5.43,3.13,10.87,6.22a.67.67,0,0,1,.14.09,1.45,1.45,0,0,0,.92.38,1.29,1.29,0,0,0,.89-.4L318,804l-.22-.42c-.1-.21-.2-.43-.31-.64a11.73,11.73,0,0,0-.76-1.44l-.15-.26c-1.52-2.48-3.1-5-4.7-7.53-1.4-2.17-2.81-4.32-4.22-6.47-1.75-2.68-3.5-5.34-5.23-8-.78-1.23-1.52-2.48-2.27-3.73-.59-1-1.19-2-1.8-3a16.08,16.08,0,0,0-1.93-2.52c-1.78-1.8-3.6-3.58-5.4-5.36-1-1-2-2-3-2.93-1.18-1.19-2.37-2.37-3.55-3.57l-3.65-3.64L264,737.83c-1.76-1.74-3.52-3.49-5.3-5.2-.75-.72-1.27-1.11-1.92-1.11a3.12,3.12,0,0,0-2,1.08l-3.43,3c-1.55,1.37-3.11,2.73-4.66,4.11l-2.09,1.9-1.39,1.27.41.46c7.53,8.51,14.95,16.91,22.41,25.33l-1.11,1.17c-1,1.11-2,2.15-3.06,3.14q-20.66,19.85-41.35,39.68l-4.6,4.41c-.16.16-.34.3-.53.46-17.66-15.6-36.44-32.21-55.16-48.91,4.11-3.79,8.3-7.52,12.36-11.15,4.64-4.14,9.44-8.41,14.1-12.74l.43-.41L176,731l-.47.28c-.22.15-.44.28-.63.4-.43.26-.8.48-1.15.73l-.86.64c-1.19.88-2.42,1.77-3.56,2.73L167.89,737c-4.34,3.6-8.83,7.34-13.17,11.09-2.71,2.35-5.33,4.89-7.87,7.33l-.46.45c-4.17,4-7.87,7.67-11.32,11.13-3.82,3.83-6.93,7-9.76,10C122.87,779.59,120.45,782.28,118.11,784.89Z" transform="translate(-31.87 105.85)"/><text class="cls-2" transform="translate(53.27 1183.72) rotate(81.99)">T</text><text class="cls-2" transform="matrix(0.27, 0.96, -0.96, 0.27, 68.82, 1294.2)">U</text><text class="cls-2" transform="matrix(0.36, 0.93, -0.93, 0.36, 105.09, 1416.63)"> </text><text class="cls-2" transform="translate(123.26 1466.76) rotate(63.39)">B</text><text class="cls-2" transform="matrix(0.56, 0.83, -0.83, 0.56, 178.06, 1574.68)">E</text><text class="cls-2" transform="translate(246.62 1674.86) rotate(47.94)">R</text><text class="cls-2" transform="translate(334.99 1772.08) rotate(39.49)">G</text><text class="cls-2" transform="translate(444.06 1860.17) rotate(31.36)">A</text><text class="cls-2" transform="translate(547.66 1922.57) rotate(23.83)">K</text><text class="cls-2" transform="translate(658.63 1970.88) rotate(16.24)">A</text><text class="cls-2" transform="matrix(0.99, 0.14, -0.14, 0.99, 775.37, 2004.48)">D</text><text class="cls-2" transform="matrix(1, 0.01, -0.01, 1, 904.78, 2022.34)">E</text><text class="cls-2" transform="translate(1026.91 2023.41) rotate(-7.96)">M</text><text class="cls-2" transform="matrix(0.97, -0.25, 0.25, 0.97, 1171.9, 2000.17)">I</text><text class="cls-2" transform="translate(1223.84 1988.26) rotate(-19.58)">E</text><text class="cls-2" transform="translate(1334.5 1946.93) rotate(-24.98)"> </text><text class="cls-2" transform="translate(1382.8 1925.47) rotate(-30.04)">F</text><text class="cls-2" transform="translate(1479.44 1869.52) rotate(-37.61)">R</text><text class="cls-2" transform="translate(1582.22 1789.06) rotate(-45.45)">E</text><text class="cls-2" transform="translate(1663.71 1703.68) rotate(-50.77)">I</text><text class="cls-2" transform="translate(1698.27 1663.23) rotate(-56.08)">B</text><text class="cls-2" transform="translate(1765.24 1562.5) rotate(-63.61)">E</text><text class="cls-2" transform="translate(1818.88 1453.57) rotate(-71.49)">R</text><text class="cls-2" transform="translate(1860.18 1328.69) rotate(-80.05)">G</text><text class="cls-3" transform="matrix(0.62, -0.78, 0.78, 0.62, 328.81, 728.81)">A</text><text class="cls-3" transform="translate(432.16 593.67) rotate(-37.1)">G</text><text class="cls-3" transform="translate(596.37 476.28) rotate(-26.59)"> </text><text class="cls-3" transform="translate(653.73 439.79) rotate(-16.03)">Q</text><text class="cls-3" transform="translate(845.16 384.27) rotate(-0.93)">U</text><text class="cls-3" transform="translate(1030.14 381.02) rotate(12.87)">E</text><text class="cls-3" transform="translate(1196.69 417.82) rotate(26.23)">E</text><text class="cls-3" transform="matrix(0.76, 0.65, -0.65, 0.76, 1350.35, 491.14)">R</text><text class="cls-3" transform="translate(1491.43 611.17) rotate(53.5)">Z</text><g id="Ebene_1-2" data-name="Ebene 1"><path class="cls-4" d="M850.5,922,996.33,815.15,941,706.31Z" transform="translate(-31.87 105.85)"/><path class="cls-5" d="M850.5,922,799.58,744.76,941,706.24Z" transform="translate(-31.87 105.85)"/><path class="cls-6" d="M883.43,651.92l-83.91,92.91,141.36-38.52Z" transform="translate(-31.87 105.85)"/><path class="cls-6" d="M883.43,651.92l-83.91,92.91-117.11-73Z" transform="translate(-31.87 105.85)"/><path class="cls-4" d="M883.43,651.92,782.85,609.73l-100.5,62.12Z" transform="translate(-31.87 105.85)"/><path class="cls-7" d="M669.55,606.8l113.3,2.93-100.5,62.12Z" transform="translate(-31.87 105.85)"/><path class="cls-8" d="M669.55,606.8l-91.11,26.39,104,38.66Z" transform="translate(-31.87 105.85)"/><path class="cls-9" d="M596.3,786.35,578.44,633.19l104,38.66Z" transform="translate(-31.87 105.85)"/><path class="cls-10" d="M596.3,786.35l204-42.32L682.41,671.85Z" transform="translate(-31.87 105.85)"/><path class="cls-11" d="M596.3,786.35l204-42.32L724.07,962Z" transform="translate(-31.87 105.85)"/><path class="cls-12" d="M850.5,922,800.25,744,724.07,961.91Z" transform="translate(-31.87 105.85)"/><path class="cls-13" d="M596.3,786.35,578.44,633.19,477.93,721.1Z" transform="translate(-31.87 105.85)"/><path class="cls-14" d="M596.3,786.35,430.61,822.74,477.93,721.1Z" transform="translate(-31.87 105.85)"/><path class="cls-15" d="M596.3,786.35,430.61,822.74,553.31,995.5Z" transform="translate(-31.87 105.85)"/><path class="cls-16" d="M596.3,786.35,724.07,962,553.31,995.5Z" transform="translate(-31.87 105.85)"/><path class="cls-17" d="M430.88,1021.16l-.27-198.42L553.31,995.5Z" transform="translate(-31.87 105.85)"/><path class="cls-18" d="M430.88,1021.16l48.78,124.57L553.31,995.5Z" transform="translate(-31.87 105.85)"/><path class="cls-19" d="M672.55,1145.06l-192.95.67L553.31,995.5Z" transform="translate(-31.87 105.85)"/><path class="cls-20" d="M672.55,1145.06,724.07,962,553.31,995.5Z" transform="translate(-31.87 105.85)"/><path class="cls-20" d="M672.55,1145.06,724.07,962l171,106.77Z" transform="translate(-31.87 105.85)"/><path class="cls-21" d="M850.5,922,724.07,961.91l171,106.77Z" transform="translate(-31.87 105.85)"/><path class="cls-22" d="M850.5,922l188.09,94.5-143.5,52.19Z" transform="translate(-31.87 105.85)"/><path class="cls-15" d="M850.5,922l188.09,94.5L996.33,815.15Z" transform="translate(-31.87 105.85)"/><path class="cls-23" d="M672.55,1145.06l214,127.64,8.53-204Z" transform="translate(-31.87 105.85)"/><path class="cls-24" d="M672.55,1145.06l214,127.64-254.14,66.78Z" transform="translate(-31.87 105.85)"/><path class="cls-25" d="M672.55,1145.06l-192.95.67,152.76,193.75Z" transform="translate(-31.87 105.85)"/><path class="cls-26" d="M800.32,1470.38l86.24-197.62-254.14,66.79Z" transform="translate(-31.87 105.85)"/><path class="cls-27" d="M800.32,1470.38l86.24-197.62L998,1463.45Z" transform="translate(-31.87 105.85)"/><path class="cls-28" d="M800.32,1470.38l197.95,109-.27-116Z" transform="translate(-31.87 105.85)"/><path class="cls-29" d="M1025.79,1186,886.56,1272.7,998,1463.38Z" transform="translate(-31.87 105.85)"/><path class="cls-30" d="M1025.79,1186,886.56,1272.7l8.53-204Z" transform="translate(-31.87 105.85)"/><path class="cls-25" d="M1025.79,1186l12.8-169.5-143.5,52.19Z" transform="translate(-31.87 105.85)"/><path class="cls-15" d="M1171.76,872.06l-133.17,144.43L996.33,815.15Z" transform="translate(-31.87 105.85)"/><path class="cls-30" d="M1025.79,1186l12.8-169.5,155.83,96.91Z" transform="translate(-31.87 105.85)"/><path class="cls-26" d="M1025.79,1186l173.89,128.36-201.61,149Z" transform="translate(-31.87 105.85)"/><path class="cls-28" d="M1195.22,1468.72l4.46-154.37-201.61,149Z" transform="translate(-31.87 105.85)"/><path class="cls-27" d="M1195.22,1468.72,998.33,1579.29l-.26-116Z" transform="translate(-31.87 105.85)"/><path class="cls-27" d="M1195.22,1468.72l4.46-154.37L1359,1341Z" transform="translate(-31.87 105.85)"/><path class="cls-26" d="M1343.45,1164.06l-143.83,150.29L1359,1341Z" transform="translate(-31.87 105.85)"/><path class="cls-29" d="M1343.45,1164.06l140.43,31L1359,1341Z" transform="translate(-31.87 105.85)"/><path class="cls-31" d="M1343.45,1164.06l-143.83,150.29-5.27-200.95Z" transform="translate(-31.87 105.85)"/><path class="cls-23" d="M1025.79,1186l173.89,128.36-5.26-200.95Z" transform="translate(-31.87 105.85)"/><path class="cls-23" d="M1343.45,1164.06l140.43,31-55.79-191.22Z" transform="translate(-31.87 105.85)"/><path class="cls-31" d="M1568.19,993l-84.38,202.15L1428,1003.9Z" transform="translate(-31.87 105.85)"/><path class="cls-25" d="M1343.45,1164.06l-149-50.66L1428,1003.83Z" transform="translate(-31.87 105.85)"/><path class="cls-21" d="M1171.76,872.06l22.66,241.34L1428,1003.83Z" transform="translate(-31.87 105.85)"/><path class="cls-32" d="M1171.76,872.06l22.66,241.34-155.83-96.91Z" transform="translate(-31.87 105.85)"/><path class="cls-33" d="M1171.76,872.06l53.58-197.41-229,140.5Z" transform="translate(-31.87 105.85)"/><path class="cls-15" d="M1171.76,872.06l209.41-100.5,46.92,232.27Z" transform="translate(-31.87 105.85)"/><path class="cls-34" d="M1062.78,693.78l162.5-19.07-229,140.5Z" transform="translate(-31.87 105.85)"/><path class="cls-16" d="M1171.76,872.06l209.41-100.5-155.83-96.91Z" transform="translate(-31.87 105.85)"/><path class="cls-35" d="M1569.39,853.94l-188.28-82.38L1428,1003.83Z" transform="translate(-31.87 105.85)"/><path class="cls-19" d="M1569.39,853.94l-1.2,139L1428,1003.9Z" transform="translate(-31.87 105.85)"/><path class="cls-36" d="M1569.39,853.94l-188.28-82.38L1493.48,694Z" transform="translate(-31.87 105.85)"/><path class="cls-4" d="M1348.91,610.66l32.2,161L1493.54,694Z" transform="translate(-31.87 105.85)"/><path class="cls-37" d="M1348.91,610.66l32.2,161-155.83-96.91Z" transform="translate(-31.87 105.85)"/><path class="cls-38" d="M1348.91,610.66l-144.43.07,20.86,64Z" transform="translate(-31.87 105.85)"/><path class="cls-39" d="M1062.78,693.78l141.7-83,20.86,64Z" transform="translate(-31.87 105.85)"/></g></svg>
