<?xml version="1.0" encoding="utf-8"?>
<!-- Generator: Adobe Illustrator 21.1.0, SVG Export Plug-In . SVG Version: 6.00 Build 0)  -->
<svg version="1.1" id="Ebene_1" xmlns="http://www.w3.org/2000/svg" xmlns:xlink="http://www.w3.org/1999/xlink" x="0px" y="0px"
	 viewBox="0 0 2000 2000" style="enable-background:new 0 0 2000 2000;" xml:space="preserve">
<style type="text/css">
	.st0{fill:#1D1D1B;}
	.st1{fill:none;}
	.st2{fill:#E42924;}
	.st3{fill:#E52F2C;}
	.st4{fill:#E63331;}
	.st5{fill:#E4221D;}
	.st6{fill:#DA0D15;}
	.st7{fill:#E42822;}
	.st8{fill:#E5322F;}
	.st9{fill:#ED751C;}
	.st10{fill:#F08617;}
	.st11{fill:#E31B18;}
	.st12{fill:#D70F16;}
	.st13{fill:#EF7E19;}
	.st14{fill:#E9611C;}
	.st15{fill:#CC1417;}
	.st16{fill:#F2E500;}
	.st17{fill:#FABC01;}
	.st18{fill:#E3CB00;}
	.st19{fill:#FBC005;}
	.st20{fill:#E4CE00;}
	.st21{fill:#009142;}
	.st22{fill:#3A4A91;}
	.st23{fill:#007940;}
	.st24{fill:#124F9C;}
	.st25{fill:#7D3B8E;}
	.st26{fill:#803987;}
	.st27{fill:#3F519E;}
	.st28{fill:#029D42;}
	.st29{fill:#059739;}
	.st30{fill:#FCC800;}
	.st31{fill:#E74344;}
	.st32{fill:#ED7274;}
	.st33{fill:#E7491F;}
	.st34{fill:#E31916;}
	.st35{fill:#E63838;}
	.st36{fill:#E63432;}
	.st37{fill:#E95254;}
</style>
<g>
	<path class="st0" d="M1901.3,747.4l-2.8-0.6l-16.9,11.3l-61.9,57.9v-68.4c8.3-1.3,14.1-5.8,14.3-11.2l0-48.7h-9.9v38.7
		c0,1-0.1,2.2-0.1,3.8c0,4.2-3.9,7.7-8.8,7.7c-4.8,0-8.8-3.5-8.8-7.7c0-0.9,0-1.7,0-2.4c0-0.5,0-1,0-1.3v-38.8h-9.9v48.2l0,0.1
		c0,0,0,0.1,0,0.1c0,5.2,5.4,9.8,13.3,11.3v68.6l-66.9-62.6l0,0l-6.8-6.4l-0.4-0.3l-0.1-0.1l-20,21.3l7.2,6.8l13.4-14.1l71.5,66.9
		l-78.8,73.7l6.7,7.2l74.3-69.5V946h9.9V838.8l74.3,69.5l6.7-7.2l-78.7-73.7l67-62.7L1901.3,747.4z"/>
	<path class="st0" d="M118.1,784.9l-2,2.2c-0.7,0.8-1.4,1.6-2.1,2.4l-1.4,1.7l4.5,4c0.7,0.6,1.3,1.2,2,1.8c1.5,1.3,3.1,2.7,4.6,4.1
		c0.9,0.8,1.5,1.3,2.2,1.3c0.7,0,1.4-0.6,2.1-1.3c2.6-2.6,5.4-5.5,8.6-8.9c2.1-2.2,4.2-4.4,6.3-6.6c1.6-1.7,3.2-3.4,4.8-5.1
		c1.1-1.1,2.2-2.2,3.2-3.3l1-1c5.2,4.5,49,46.3,53.4,50.9l-83.9,79.1l0.4,0.4c0.3,0.3,0.5,0.6,0.8,1c0.5,0.7,1,1.3,1.6,1.9
		c2.1,2.2,4,4,5.8,5.7c0.2,0.2,0.4,0.4,0.5,0.5c0.9,0.9,2,1.9,3.5,2.4l0.4,0.1l80.3-82.2c0.1,0,0.1,0.1,0.2,0.1
		c1.2,1.3,2.5,2.5,3.7,3.8c2.4,2.5,4.9,5,7.3,7.4c2.6,2.6,5.2,5.2,7.8,7.8c1.7,1.7,3.5,3.4,5.2,5.2c1.5,1.5,3,3,4.5,4.5
		c2.1,2.2,4.3,4.3,6.4,6.4c3.8,3.8,7.7,7.5,11.5,11.3l4,3.9c0.6,0.5,1.1,1.1,1.7,1.6c0.9,0.9,1.8,1.7,2.7,2.6
		c1.8,1.8,3.7,3.7,5.5,5.5c2.1,2.1,4.3,4.3,6.4,6.4c3.6,3.6,7.2,7.1,10.8,10.6c1.3,1.3,2.8,2.7,4.3,4c0.6,0.5,1,0.7,1.5,0.7
		c0.6,0,1-0.4,1.6-0.9c2.5-2.4,5.1-4.8,7.5-7.3c0.8-0.8,1.5-1.6,2.2-2.4l0.5-0.6c0.2-0.3,0.4-0.6,0.6-0.9c0.1-0.1,0.2-0.3,0.2-0.4
		l0.3-0.4l-0.8-0.8c-0.2-0.2-0.4-0.5-0.7-0.7l-20.4-18.7c-18.1-16.7-36.2-33.3-54.3-49.9c-1.4-1.3-2.9-2.6-4.3-3.8
		c-0.8-0.7-1.6-1.4-2.4-2.1c-0.9-0.8-1.8-1.6-2.8-2.5l-1-0.8c5.6-5.8,11.1-11.6,16.7-17.3c10.4-10.8,21.1-22,31.9-32.9
		c0.3,0.3,0.6,0.5,0.9,0.7l2.4,2.1c2.9,2.6,5.8,5.1,8.7,7.7c2,1.7,3.8,3,5.7,4c1.4,0.7,2.7,1.4,4,2.1c1.7,1,3.4,2,5.1,3
		c1.6,1,3.2,1.9,4.8,2.8c3.6,2.1,7.2,4.2,10.9,6.2c0.1,0,0.1,0.1,0.1,0.1c0.2,0.2,0.5,0.4,0.9,0.4c0.3,0,0.6-0.1,0.9-0.4l0.4-0.3
		l-0.2-0.4c-0.1-0.2-0.2-0.4-0.3-0.6c-0.2-0.5-0.5-1-0.8-1.4l-0.2-0.3c-1.5-2.5-3.1-5-4.7-7.5c-1.4-2.2-2.8-4.3-4.2-6.5
		c-1.7-2.7-3.5-5.3-5.2-8c-0.8-1.2-1.5-2.5-2.3-3.7c-0.6-1-1.2-2-1.8-3c-0.7-1.1-1.3-1.9-1.9-2.5c-1.8-1.8-3.6-3.6-5.4-5.4
		c-1-1-2-2-3-2.9c-1.2-1.2-2.4-2.4-3.6-3.6c-1.2-1.2-2.4-2.4-3.6-3.6c-5.6-5.6-11.2-11.1-16.9-16.7c-1.8-1.7-3.5-3.5-5.3-5.2
		c-0.7-0.7-1.3-1.1-1.9-1.1c-0.7,0-1.3,0.5-2,1.1l-3.4,3c-1.6,1.4-3.1,2.7-4.7,4.1c-0.7,0.6-1.4,1.2-2.1,1.9l-1.4,1.3l0.4,0.5
		c7.5,8.5,14.9,16.9,22.4,25.3c-0.4,0.4-0.7,0.8-1.1,1.2c-1,1.1-2,2.1-3.1,3.1c-13.8,13.2-27.6,26.5-41.4,39.7l-4.6,4.4
		c-0.2,0.2-0.3,0.3-0.5,0.5c-17.7-15.6-36.4-32.2-55.2-48.9c4.1-3.8,8.3-7.5,12.4-11.1c4.6-4.1,9.4-8.4,14.1-12.7l0.4-0.4L176,731
		l-0.5,0.3c-0.2,0.1-0.4,0.3-0.6,0.4c-0.4,0.3-0.8,0.5-1.2,0.7l-0.9,0.6c-1.2,0.9-2.4,1.8-3.6,2.7l-1.4,1.2
		c-4.3,3.6-8.8,7.3-13.2,11.1c-2.7,2.3-5.3,4.9-7.9,7.3l-0.5,0.5c-4.2,4-7.9,7.7-11.3,11.1c-3.8,3.8-6.9,7-9.8,10
		C122.9,779.6,120.4,782.3,118.1,784.9z"/>
	<path id="SVGID_x5F_1_x5F_" class="st1" d="M1911.7,903.6C1858.5,400,1407.1,35,903.6,88.3C400,141.5,35,592.9,88.3,1096.4
		c53.2,503.5,504.6,868.6,1008.2,815.3C1599.9,1858.5,1965,1407.1,1911.7,903.6z"/>
	<text>	<textPath  xlink:href="#SVGID_x5F_1_x5F_" startOffset="466.1573%">
<tspan  class="st0" style="font-family:'ArialMT'; font-size:166.837px;">TU BERGAKADEMIE FREIBERG</tspan>	</textPath>
</text>
	<path id="SVGID_x5F_2_x5F_" class="st1" d="M1702.5,1140.9c-75.1,395-456.3,654.3-851.3,579.2c-395-75.1-654.3-456.3-579.2-851.3
		c75.1-395,456.3-654.3,851.3-579.2C1518.3,364.8,1777.6,745.9,1702.5,1140.9z"/>
	<text>	<textPath  xlink:href="#SVGID_x5F_2_x5F_" startOffset="7674.2876%">
<tspan  class="st0" style="font-family:'ArialMT'; font-size:270.4848px;">AG QUEERZ</tspan>	</textPath>
</text>
	<g id="Ebene_1_1_">
		<g transform="translate(-5.2084 -235.32)">
			<path class="st2" d="M855.7,1157.3l145.8-106.8l-55.4-108.8L855.7,1157.3z"/>
			<path class="st3" d="M855.7,1157.3l-50.9-177.2l141.4-38.5L855.7,1157.3z"/>
			<path class="st4" d="M888.6,887.2l-83.9,92.9l141.4-38.5L888.6,887.2z"/>
			<path class="st4" d="M888.6,887.2l-83.9,92.9l-117.1-73L888.6,887.2z"/>
			<path class="st2" d="M888.6,887.2L788.1,845l-100.5,62.1L888.6,887.2z"/>
			<path class="st5" d="M674.8,842.1l113.3,2.9l-100.5,62.1L674.8,842.1z"/>
			<path class="st6" d="M674.8,842.1l-91.1,26.4l104,38.7L674.8,842.1z"/>
			<path class="st7" d="M601.5,1021.7l-17.9-153.2l104,38.7L601.5,1021.7z"/>
			<path class="st8" d="M601.5,1021.7l203.9-42.3l-117.8-72.2L601.5,1021.7z"/>
			<path class="st9" d="M601.5,1021.7l203.9-42.3l-76.2,217.9L601.5,1021.7z"/>
			<path class="st10" d="M855.7,1157.3l-50.3-178l-76.2,217.9L855.7,1157.3z"/>
			<path class="st11" d="M601.5,1021.7l-17.9-153.2l-100.5,87.9L601.5,1021.7z"/>
			<path class="st12" d="M601.5,1021.7l-165.7,36.4l47.3-101.6L601.5,1021.7z"/>
			<path class="st13" d="M601.5,1021.7l-165.7,36.4l122.7,172.8L601.5,1021.7z"/>
			<path class="st14" d="M601.5,1021.7l127.8,175.6l-170.8,33.5L601.5,1021.7z"/>
			<path class="st15" d="M436.1,1256.5l-0.3-198.4l122.7,172.8L436.1,1256.5z"/>
			<path class="st16" d="M436.1,1256.5l48.8,124.6l73.6-150.2L436.1,1256.5z"/>
			<path class="st17" d="M677.8,1380.4l-193,0.7l73.7-150.2L677.8,1380.4z"/>
			<path class="st18" d="M677.8,1380.4l51.5-183.1l-170.8,33.5L677.8,1380.4z"/>
			<path class="st18" d="M677.8,1380.4l51.5-183.1l171,106.8L677.8,1380.4z"/>
			<path class="st19" d="M855.7,1157.3l-126.4,39.9l171,106.8L855.7,1157.3z"/>
			<path class="st20" d="M855.7,1157.3l188.1,94.5L900.3,1304L855.7,1157.3z"/>
			<path class="st13" d="M855.7,1157.3l188.1,94.5l-42.3-201.3L855.7,1157.3z"/>
			<path class="st21" d="M677.8,1380.4l214,127.6l8.5-204L677.8,1380.4z"/>
			<path class="st22" d="M677.8,1380.4l214,127.6l-254.1,66.8L677.8,1380.4z"/>
			<path class="st23" d="M677.8,1380.4l-193,0.7l152.8,193.8L677.8,1380.4z"/>
			<path class="st24" d="M805.5,1705.7l86.2-197.6l-254.1,66.8L805.5,1705.7z"/>
			<path class="st25" d="M805.5,1705.7l86.2-197.6l111.4,190.7L805.5,1705.7z"/>
			<path class="st26" d="M805.5,1705.7l198,109l-0.3-116L805.5,1705.7z"/>
			<path class="st27" d="M1031,1421.3L891.8,1508l111.4,190.7L1031,1421.3z"/>
			<path class="st28" d="M1031,1421.3L891.8,1508l8.5-204L1031,1421.3z"/>
			<path class="st23" d="M1031,1421.3l12.8-169.5L900.3,1304L1031,1421.3z"/>
			<path class="st13" d="M1177,1107.4l-133.2,144.4l-42.3-201.3L1177,1107.4z"/>
			<path class="st28" d="M1031,1421.3l12.8-169.5l155.8,96.9L1031,1421.3z"/>
			<path class="st24" d="M1031,1421.3l173.9,128.4l-201.6,149L1031,1421.3z"/>
			<path class="st26" d="M1200.4,1704l4.5-154.4l-201.6,149L1200.4,1704z"/>
			<path class="st25" d="M1200.4,1704l-196.9,110.6l-0.3-116L1200.4,1704z"/>
			<path class="st25" d="M1200.4,1704l4.5-154.4l159.4,26.7L1200.4,1704z"/>
			<path class="st24" d="M1348.7,1399.4l-143.8,150.3l159.4,26.7L1348.7,1399.4z"/>
			<path class="st27" d="M1348.7,1399.4l140.4,31l-124.8,146L1348.7,1399.4z"/>
			<path class="st29" d="M1348.7,1399.4l-143.8,150.3l-5.3-200.9L1348.7,1399.4z"/>
			<path class="st21" d="M1031,1421.3l173.9,128.4l-5.3-200.9L1031,1421.3z"/>
			<path class="st21" d="M1348.7,1399.4l140.4,31l-55.8-191.2L1348.7,1399.4z"/>
			<path class="st29" d="M1573.4,1228.3l-84.4,202.1l-55.8-191.2L1573.4,1228.3z"/>
			<path class="st23" d="M1348.7,1399.4l-149-50.7l233.6-109.6L1348.7,1399.4z"/>
			<path class="st19" d="M1177,1107.4l22.7,241.3l233.6-109.6L1177,1107.4z"/>
			<path class="st30" d="M1177,1107.4l22.7,241.3l-155.8-96.9L1177,1107.4z"/>
			<path class="st31" d="M1177,1107.4l53.6-197.4l-229,140.5L1177,1107.4z"/>
			<path class="st13" d="M1177,1107.4l209.4-100.5l46.9,232.3L1177,1107.4z"/>
			<path class="st32" d="M1068,929.1l162.5-19.1l-229,140.5L1068,929.1z"/>
			<path class="st14" d="M1177,1107.4l209.4-100.5L1230.6,910L1177,1107.4z"/>
			<path class="st33" d="M1574.6,1089.3l-188.3-82.4l46.9,232.3L1574.6,1089.3z"/>
			<path class="st17" d="M1574.6,1089.3l-1.2,139l-140.2,10.9L1574.6,1089.3z"/>
			<path class="st34" d="M1574.6,1089.3l-188.3-82.4l112.4-77.6L1574.6,1089.3z"/>
			<path class="st2" d="M1354.1,846l32.2,161l112.4-77.6L1354.1,846z"/>
			<path class="st35" d="M1354.1,846l32.2,161L1230.5,910L1354.1,846z"/>
			<path class="st36" d="M1354.1,846l-144.4,0.1l20.9,64L1354.1,846z"/>
			<path class="st37" d="M1068,929.1l141.7-83l20.9,64L1068,929.1z"/>
		</g>
	</g>
</g>
</svg>
